<svg width="172" height="33" viewBox="0 0 172 33" fill="none" xmlns="http://www.w3.org/2000/svg">
<path d="M0 32.0626V2.2057H19.9616V7.41025H6.26331V14.5246H18.9346V19.7292H6.26331V26.8581H20.0195V32.0626H0Z" fill="#8CE200"/>
<path d="M33.0126 32.4271C31.325 32.4271 29.7965 31.9897 28.4272 31.115C27.0675 30.2306 25.9874 28.9331 25.1871 27.2225C24.3963 25.5023 24.0009 23.3932 24.0009 20.8954C24.0009 18.3296 24.4108 16.1963 25.2304 14.4954C26.0501 12.7849 27.1398 11.5068 28.4995 10.6613C29.8689 9.806 31.3684 9.37836 32.9981 9.37836C34.2421 9.37836 35.2788 9.59218 36.1081 10.0198C36.947 10.4377 37.6221 10.9626 38.1332 11.5943C38.6539 12.2163 39.0493 12.8286 39.3193 13.4312H39.5073V2.2057H45.6549V32.0626H39.5797V28.4763H39.3193C39.03 29.0983 38.6202 29.7155 38.0898 30.3278C37.569 30.9304 36.8892 31.4309 36.0502 31.8294C35.2209 32.2279 34.2084 32.4271 33.0126 32.4271ZM34.9653 27.485C35.9586 27.485 36.7976 27.2128 37.4822 26.6686C38.1766 26.1146 38.7069 25.3419 39.0734 24.3506C39.4495 23.3592 39.6375 22.1978 39.6375 20.8663C39.6375 19.5348 39.4543 18.3782 39.0879 17.3966C38.7214 16.415 38.191 15.6569 37.4967 15.1223C36.8024 14.5878 35.9586 14.3205 34.9653 14.3205C33.9528 14.3205 33.0994 14.5975 32.4051 15.1515C31.7107 15.7055 31.1852 16.4733 30.8284 17.4549C30.4716 18.4365 30.2932 19.5737 30.2932 20.8663C30.2932 22.1686 30.4716 23.3204 30.8284 24.3214C31.1948 25.3128 31.7204 26.0903 32.4051 26.654C33.0994 27.208 33.9528 27.485 34.9653 27.485Z" fill="#8CE200"/>
<path d="M64.9692 22.5282V9.66993H71.1313V32.0626H65.2151V27.9952H64.9837C64.4822 29.3073 63.6481 30.3618 62.4813 31.1588C61.3241 31.9557 59.9113 32.3542 58.243 32.3542C56.758 32.3542 55.4513 32.014 54.323 31.3337C53.1948 30.6534 52.3124 29.6863 51.676 28.4326C51.0491 27.1788 50.7309 25.6772 50.7213 23.9278V9.66993H56.8833V22.8198C56.893 24.1416 57.245 25.1864 57.9393 25.9542C58.6336 26.722 59.5642 27.1059 60.731 27.1059C61.4735 27.1059 62.1679 26.9358 62.814 26.5957C63.4601 26.2458 63.9808 25.7307 64.3762 25.0503C64.7812 24.37 64.9789 23.5293 64.9692 22.5282Z" fill="#8CE200"/>
<path d="M86.0989 32.5C83.8231 32.5 81.8655 32.014 80.2261 31.0421C78.5964 30.0605 77.3428 28.6998 76.4652 26.9601C75.5973 25.2204 75.1634 23.2183 75.1634 20.9538C75.1634 18.6601 75.6021 16.6482 76.4797 14.9182C77.3669 13.1785 78.6253 11.8227 80.255 10.8508C81.8848 9.86917 83.8231 9.37836 86.0699 9.37836C88.0082 9.37836 89.7055 9.73311 91.1616 10.4426C92.6177 11.1521 93.7701 12.1483 94.6187 13.4312C95.4673 14.7141 95.935 16.2206 96.0218 17.9506H90.2069C90.043 16.8329 89.609 15.9339 88.9051 15.2535C88.2108 14.5635 87.2995 14.2185 86.1712 14.2185C85.2165 14.2185 84.3824 14.4809 83.6688 15.0057C82.9648 15.5208 82.4151 16.274 82.0198 17.2654C81.6244 18.2567 81.4267 19.457 81.4267 20.8663C81.4267 22.295 81.6196 23.5099 82.0053 24.5109C82.4007 25.512 82.9552 26.2749 83.6688 26.7998C84.3824 27.3246 85.2165 27.587 86.1712 27.587C86.8752 27.587 87.5068 27.4412 88.0661 27.1497C88.6351 26.8581 89.1028 26.4353 89.4692 25.8813C89.8453 25.3176 90.0912 24.6421 90.2069 23.8549H96.0218C95.9254 25.5655 95.4625 27.0719 94.6332 28.3743C93.8135 29.6669 92.6804 30.6777 91.2339 31.4066C89.7874 32.1355 88.0757 32.5 86.0989 32.5Z" fill="#8CE200"/>
<path d="M106.303 32.4854C104.885 32.4854 103.622 32.2376 102.513 31.7419C101.404 31.2365 100.526 30.493 99.8803 29.5114C99.2439 28.52 98.9257 27.2857 98.9257 25.8084C98.9257 24.5644 99.1523 23.5196 99.6055 22.674C100.059 21.8285 100.676 21.1481 101.457 20.633C102.238 20.1179 103.125 19.7292 104.119 19.4667C105.121 19.2043 106.173 19.0197 107.272 18.9128C108.564 18.7767 109.606 18.6503 110.396 18.5337C111.187 18.4074 111.761 18.2227 112.118 17.9797C112.474 17.7367 112.653 17.3771 112.653 16.9009V16.8134C112.653 15.8901 112.364 15.1758 111.785 14.6704C111.216 14.165 110.406 13.9123 109.355 13.9123C108.246 13.9123 107.364 14.1601 106.708 14.6558C106.052 15.1418 105.618 15.7541 105.406 16.4927L99.7067 16.0262C99.996 14.6655 100.565 13.4895 101.414 12.4982C102.262 11.4971 103.357 10.7293 104.697 10.1948C106.047 9.65049 107.609 9.37836 109.384 9.37836C110.618 9.37836 111.799 9.52415 112.928 9.81572C114.066 10.1073 115.073 10.5592 115.951 11.1715C116.838 11.7838 117.537 12.5711 118.048 13.5333C118.559 14.4857 118.815 15.6277 118.815 16.9592V32.0626H112.971V28.9574H112.798C112.441 29.6572 111.963 30.2743 111.365 30.8089C110.768 31.3337 110.049 31.7468 109.21 32.0481C108.371 32.3396 107.402 32.4854 106.303 32.4854ZM108.067 28.1993C108.974 28.1993 109.774 28.0195 110.469 27.6599C111.163 27.2906 111.708 26.7949 112.103 26.1729C112.499 25.5509 112.696 24.8462 112.696 24.059V21.6827C112.503 21.809 112.238 21.9257 111.901 22.0326C111.573 22.1298 111.202 22.2221 110.787 22.3096C110.372 22.3873 109.958 22.4602 109.543 22.5282C109.128 22.5866 108.752 22.64 108.415 22.6886C107.691 22.7955 107.06 22.9656 106.52 23.1989C105.98 23.4321 105.56 23.748 105.261 24.1465C104.962 24.5352 104.813 25.0212 104.813 25.6043C104.813 26.4499 105.117 27.0962 105.724 27.5433C106.341 27.9806 107.122 28.1993 108.067 28.1993Z" fill="#8CE200"/>
<path d="M135.413 9.66993V14.3351H122.033V9.66993H135.413ZM125.071 4.30501H131.233V25.1815C131.233 25.755 131.32 26.202 131.493 26.5228C131.667 26.8338 131.908 27.0525 132.217 27.1788C132.535 27.3052 132.901 27.3683 133.316 27.3683C133.605 27.3683 133.895 27.344 134.184 27.2954C134.473 27.2371 134.695 27.1934 134.849 27.1642L135.818 31.7856C135.51 31.8828 135.076 31.9946 134.517 32.121C133.957 32.257 133.277 32.3396 132.477 32.3688C130.992 32.4271 129.69 32.2279 128.572 31.7711C127.463 31.3143 126.599 30.6048 125.982 29.6426C125.365 28.6804 125.061 27.4655 125.071 25.9979V4.30501Z" fill="#8CE200"/>
<path d="M139.427 32.0626V9.66993H145.59V32.0626H139.427ZM142.523 6.78337C141.607 6.78337 140.821 6.47722 140.165 5.86492C139.519 5.2429 139.196 4.49939 139.196 3.6344C139.196 2.77912 139.519 2.04533 140.165 1.43303C140.821 0.81101 141.607 0.5 142.523 0.5C143.439 0.5 144.22 0.81101 144.866 1.43303C145.522 2.04533 145.85 2.77912 145.85 3.6344C145.85 4.49939 145.522 5.2429 144.866 5.86492C144.22 6.47722 143.439 6.78337 142.523 6.78337Z" fill="#8CE200"/>
<path d="M171.239 9.66993L163.472 32.0626H156.529L148.761 9.66993H155.27L159.884 25.6918H160.116L164.716 9.66993H171.239Z" fill="#8CE200"/>
</svg>
